<?xml version="1.0" standalone="no"?>
<!DOCTYPE svg PUBLIC "-//W3C//DTD SVG 20010904//EN"
 "http://www.w3.org/TR/2001/REC-SVG-20010904/DTD/svg10.dtd">
<svg version="1.0" xmlns="http://www.w3.org/2000/svg"
 width="700.000000pt" height="700.000000pt" viewBox="0 0 700.000000 700.000000"
 preserveAspectRatio="xMidYMid meet">
<metadata>
Created by potrace 1.14, written by Peter Selinger 2001-2017
</metadata>
<g transform="translate(0.000000,700.000000) scale(0.100000,-0.100000)"
fill="#000000" stroke="none">
<path d="M3078 6993 c6 -3 9 -10 5 -16 -4 -7 2 -5 12 3 10 8 16 10 12 3 -4 -6
-2 -13 5 -16 7 -2 5 -3 -4 -2 -10 2 -18 -1 -18 -7 0 -6 -9 0 -21 13 -11 13
-18 18 -14 12 3 -7 2 -13 -4 -13 -6 0 -8 -6 -6 -12 4 -9 -5 -13 -24 -14 -20
-1 -32 4 -34 15 -4 13 -5 12 -6 -3 -1 -15 -4 -16 -16 -6 -8 7 -15 8 -15 3 0
-6 -18 -7 -42 -4 -58 9 -73 7 -70 -7 1 -7 -2 -12 -8 -12 -5 0 -10 5 -10 11 0
8 -4 8 -12 2 -7 -6 -21 -9 -31 -8 -9 2 -15 -1 -12 -5 3 -5 1 -11 -5 -15 -6 -4
-8 -10 -6 -14 3 -3 -4 -7 -14 -7 -10 0 -16 4 -14 8 3 4 1 8 -5 8 -5 0 -12 -4
-15 -9 -5 -7 -41 -8 -41 -1 0 1 -10 3 -22 4 -13 2 -19 -2 -16 -7 4 -6 -1 -8
-12 -4 -14 6 -16 3 -12 -13 3 -11 1 -23 -4 -26 -5 -3 -8 0 -7 6 2 7 -5 14 -15
15 -14 3 -15 0 -8 -9 8 -9 7 -13 -4 -13 -8 0 -15 5 -15 11 0 7 -4 6 -8 -2 -5
-8 -28 -11 -64 -10 -31 2 -56 1 -55 -2 3 -7 -26 -45 -40 -53 -6 -4 -15 -3 -18
3 -4 6 -1 9 6 8 6 -2 14 4 16 12 3 9 1 11 -4 5 -4 -6 -15 -10 -23 -10 -8 1
-25 -4 -37 -12 -24 -14 -47 -18 -25 -4 11 7 11 9 -2 14 -9 4 -15 3 -13 -1 1
-4 -8 -20 -20 -35 -14 -18 -23 -23 -26 -15 -3 7 -6 5 -6 -6 -1 -20 -1 -20 -17
0 -11 13 -14 14 -11 4 3 -11 -2 -16 -16 -18 -16 -1 -18 1 -8 7 8 5 9 11 3 15
-5 3 -13 -1 -16 -10 -3 -8 -10 -13 -15 -9 -5 3 -13 0 -17 -6 -4 -8 -3 -9 4 -5
7 4 12 2 12 -3 0 -6 -4 -11 -10 -11 -5 0 -10 -8 -10 -17 0 -15 -2 -14 -16 3
-8 10 -13 14 -10 7 4 -6 2 -14 -4 -18 -5 -3 -10 2 -10 11 0 16 -1 16 -16 -2
-8 -10 -13 -14 -10 -9 6 13 -31 17 -39 4 -3 -5 0 -6 8 -3 11 4 15 -2 13 -19 0
-16 -6 -24 -16 -22 -8 1 -19 0 -25 -3 -21 -13 -43 -8 -38 7 3 11 0 9 -7 -3
-10 -15 -9 -20 1 -27 8 -5 9 -9 4 -9 -6 0 -17 6 -24 13 -10 10 -11 8 -5 -7 5
-13 4 -17 -3 -13 -6 4 -14 1 -16 -5 -4 -9 -6 -9 -6 1 -1 11 -5 10 -17 -5 -8
-10 -13 -14 -10 -8 6 12 -23 29 -32 19 -3 -3 0 -5 6 -5 6 0 9 -7 6 -15 -5 -13
-9 -13 -22 -3 -13 11 -14 10 -3 -10 9 -18 9 -22 -1 -20 -7 2 -12 -3 -10 -10 1
-8 -2 -11 -8 -7 -8 5 -7 11 1 21 16 19 4 18 -15 -2 -9 -8 -16 -11 -16 -5 0 6
-5 11 -11 11 -6 0 -9 -7 -6 -14 4 -10 1 -13 -9 -9 -13 5 -20 -14 -15 -41 1 -5
-9 -2 -22 7 -24 15 -25 15 -20 -6 5 -22 5 -22 -11 -2 -10 11 -15 14 -11 8 3
-7 0 -13 -7 -13 -11 0 -10 -2 0 -9 11 -7 10 -10 -3 -15 -24 -9 -27 -8 -19 6 4
7 3 8 -5 4 -6 -4 -9 -11 -6 -16 3 -5 1 -11 -5 -15 -5 -3 -10 -1 -10 4 0 6 -5
11 -12 11 -6 0 -8 -3 -5 -7 4 -3 -1 -12 -11 -19 -15 -12 -15 -15 -2 -23 12 -8
11 -10 -5 -11 -50 -1 -65 -5 -65 -18 0 -7 4 -10 10 -7 6 4 7 -1 3 -11 -4 -11
-8 -13 -11 -6 -2 7 -10 12 -18 12 -9 0 -12 -4 -9 -10 4 -6 -1 -7 -11 -3 -13 5
-15 3 -9 -8 8 -12 6 -12 -8 0 -10 8 -21 11 -24 7 -4 -4 -1 -11 7 -16 13 -8 12
-10 -3 -10 -10 0 -16 -4 -13 -9 3 -5 -1 -12 -10 -15 -22 -9 -26 -8 -18 6 4 7
3 8 -5 4 -9 -6 -9 -11 0 -22 10 -12 9 -13 -6 -8 -15 6 -16 4 -6 -17 11 -21 11
-22 -2 -6 -18 22 -31 22 -23 0 4 -10 4 -14 0 -10 -10 9 -35 -13 -28 -24 3 -5
2 -9 -3 -8 -20 3 -34 -2 -28 -11 4 -6 1 -9 -7 -8 -7 2 -12 -2 -11 -9 2 -9 -4
-10 -24 -2 -24 9 -25 8 -12 -8 12 -15 12 -16 -3 -10 -10 3 -20 2 -23 -3 -3 -5
-13 -6 -23 -3 -11 4 -8 -2 8 -17 l25 -22 -24 7 c-16 5 -21 4 -17 -4 5 -7 -2
-11 -16 -11 -18 0 -20 -2 -8 -10 13 -8 13 -10 -2 -10 -9 0 -20 -5 -24 -12 -5
-7 -3 -8 7 -3 12 7 4 -5 -30 -45 -2 -3 -1 3 2 12 3 10 1 20 -6 24 -7 4 -9 4
-5 -1 4 -4 0 -14 -10 -22 -9 -8 -11 -12 -4 -8 6 3 12 1 12 -5 0 -6 -8 -10 -18
-8 -27 4 -51 -19 -45 -43 4 -15 2 -18 -11 -13 -9 3 -16 11 -16 17 0 6 -2 8 -5
5 -3 -3 -1 -18 5 -33 9 -25 9 -26 -5 -15 -12 10 -18 10 -30 0 -8 -7 -12 -16
-9 -22 3 -5 -4 -17 -15 -27 -22 -19 -29 -37 -9 -25 7 4 8 3 4 -5 -6 -9 -11 -9
-24 1 -13 11 -15 10 -10 -8 3 -12 1 -28 -4 -35 -8 -11 -9 -10 -4 4 7 21 -1 22
-20 3 -17 -17 -19 -30 -2 -20 7 4 8 3 4 -4 -4 -6 -14 -8 -23 -5 -12 5 -15 2
-10 -10 5 -13 -20 -47 -30 -39 -10 7 -23 0 -23 -14 0 -9 5 -12 12 -8 7 4 8 3
4 -5 -6 -9 -11 -9 -21 -1 -10 8 -13 6 -11 -7 0 -11 -5 -18 -14 -17 -9 1 -17
-8 -17 -19 -1 -10 -9 -27 -17 -36 -9 -10 -13 -21 -9 -24 3 -4 -2 -7 -12 -7
-17 0 -17 2 3 23 12 13 22 27 22 32 0 4 -11 -4 -24 -20 -16 -19 -23 -37 -20
-54 3 -22 2 -23 -6 -8 -6 9 -19 17 -28 16 -14 0 -14 -2 -2 -7 18 -8 25 -32 9
-32 -5 0 -7 -5 -3 -12 5 -8 2 -9 -9 -5 -11 4 -17 1 -17 -9 0 -9 5 -12 12 -8 6
4 8 3 4 -4 -3 -6 -15 -9 -25 -7 -11 2 -22 -3 -25 -11 -3 -8 -2 -12 3 -9 5 3
13 1 16 -5 4 -6 3 -10 -2 -9 -28 5 -36 -2 -17 -16 16 -13 16 -14 1 -9 -20 7
-48 -12 -41 -30 2 -6 -3 -20 -12 -31 -8 -11 -12 -13 -8 -5 5 10 0 9 -14 -4
-22 -19 -30 -32 -13 -21 6 3 9 -4 8 -15 -1 -11 -5 -20 -10 -20 -4 0 -5 -5 -1
-12 4 -7 3 -8 -4 -4 -6 4 -8 14 -5 24 5 14 3 14 -9 -2 -8 -10 -14 -30 -12 -43
2 -21 0 -22 -13 -11 -15 12 -15 10 -3 -11 11 -22 10 -23 -5 -17 -16 6 -16 4
-4 -10 13 -16 11 -17 -13 -12 -16 3 -25 1 -21 -5 3 -5 -1 -13 -8 -18 -10 -6
-11 -9 -1 -9 6 0 12 -7 12 -15 0 -8 -5 -15 -11 -15 -5 0 -7 5 -3 12 4 6 3 8
-4 5 -5 -4 -8 -16 -5 -27 3 -12 0 -20 -7 -20 -7 0 -10 -8 -8 -18 3 -11 0 -19
-7 -19 -7 0 -11 7 -8 16 4 14 4 14 -6 1 -15 -20 -14 -40 2 -36 6 1 9 1 5 -1
-5 -3 -8 -11 -8 -19 0 -9 -4 -13 -9 -9 -5 3 -13 0 -17 -6 -4 -8 -3 -9 4 -5 7
4 12 2 12 -3 0 -6 -9 -11 -19 -11 -10 0 -22 -7 -25 -16 -5 -13 -4 -14 7 -6 11
9 13 7 12 -8 -1 -11 -5 -23 -10 -27 -4 -5 -5 -2 0 6 6 10 4 12 -4 7 -9 -6 -9
-11 1 -24 10 -12 10 -14 1 -8 -8 4 -13 2 -13 -4 0 -7 -11 -21 -25 -32 -19 -15
-23 -23 -16 -37 17 -30 -4 -81 -33 -81 -6 0 -5 4 3 9 7 5 9 11 5 14 -5 3 -15
-1 -22 -9 -7 -8 -9 -14 -4 -14 12 0 20 -30 15 -48 -3 -6 -8 -10 -12 -8 -4 3
-8 -1 -8 -9 0 -8 4 -12 8 -9 4 2 11 -1 15 -7 4 -7 3 -9 -4 -5 -6 3 -13 2 -17
-4 -3 -5 -1 -10 6 -10 7 0 9 -3 6 -6 -4 -4 -14 -1 -24 7 -15 12 -16 12 -10 -3
3 -10 2 -20 -4 -23 -5 -4 -6 -11 -3 -17 4 -7 2 -8 -4 -4 -7 4 -12 1 -12 -8 0
-9 6 -16 13 -16 6 -1 1 -7 -12 -14 -20 -11 -21 -14 -7 -19 11 -5 15 -3 10 5
-4 6 -3 8 4 5 7 -5 7 -14 -1 -31 -10 -22 -13 -22 -24 -7 -11 13 -13 13 -11 1
2 -8 -2 -14 -8 -13 -10 2 -12 -62 -1 -73 9 -9 -4 -35 -14 -28 -5 3 -8 0 -7 -8
2 -7 -3 -12 -9 -11 -17 4 -16 -2 3 -17 12 -11 15 -11 12 0 -2 7 4 15 12 17 12
4 12 3 2 -5 -8 -5 -14 -13 -13 -18 0 -5 -8 -9 -18 -8 -13 0 -17 -5 -13 -20 3
-12 10 -25 16 -29 7 -5 3 -6 -8 -3 -14 5 -17 2 -12 -10 5 -13 3 -14 -7 -6 -10
8 -13 7 -13 -7 0 -13 5 -17 16 -13 13 5 13 3 1 -11 -10 -12 -10 -17 -2 -17 8
0 6 -6 -4 -16 -9 -9 -13 -19 -10 -22 3 -4 10 0 15 8 7 11 10 11 10 2 0 -7 -6
-15 -14 -18 -9 -3 -12 -12 -9 -21 4 -11 2 -14 -5 -9 -7 4 -12 2 -12 -4 0 -6
-4 -9 -9 -6 -5 4 -8 -2 -6 -11 1 -10 0 -22 -3 -27 -11 -19 -5 -78 9 -87 11 -7
10 -9 -4 -9 -12 0 -16 -4 -10 -12 10 -18 13 -38 4 -38 -4 0 -8 -7 -8 -15 0
-11 4 -12 14 -4 19 17 16 5 -6 -20 -12 -14 -25 -20 -33 -16 -7 4 0 -4 16 -19
25 -22 27 -26 10 -27 -10 -1 -22 -1 -26 0 -4 0 -4 -7 -1 -16 4 -10 2 -14 -4
-10 -8 5 -11 -119 -11 -413 -1 -309 2 -419 10 -414 8 5 9 1 5 -10 -4 -10 -3
-15 3 -11 6 3 10 1 10 -5 0 -6 4 -9 9 -5 5 3 13 0 17 -6 4 -7 3 -9 -3 -6 -6 4
-14 0 -17 -9 -3 -8 -2 -12 3 -9 5 3 12 1 16 -5 3 -5 -1 -10 -11 -10 -14 0 -14
-2 3 -17 10 -10 12 -13 4 -8 -11 7 -13 7 -7 -2 11 -19 15 -84 5 -77 -5 3 -6
10 -3 16 4 7 2 8 -5 4 -8 -6 -9 -12 -2 -20 6 -7 9 -22 6 -34 -3 -16 0 -19 13
-15 15 6 16 5 2 -13 -8 -10 -19 -22 -25 -26 -7 -5 -6 -8 1 -8 5 0 16 6 23 13
9 8 12 8 7 0 -3 -6 1 -13 11 -16 13 -3 10 -5 -7 -6 -19 -1 -21 -4 -11 -10 8
-5 21 -7 30 -4 14 4 14 3 1 -6 -12 -8 -12 -13 -2 -23 14 -14 16 -32 2 -23 -6
3 -7 -1 -4 -9 3 -9 11 -13 18 -9 7 4 7 1 -1 -7 -10 -11 -9 -16 5 -27 13 -10
14 -12 2 -8 -12 4 -16 -1 -16 -20 0 -22 7 -29 26 -27 3 0 6 -18 5 -41 0 -28 7
-50 20 -66 11 -13 15 -21 8 -17 -6 3 -14 2 -18 -4 -6 -9 8 -14 28 -11 5 1 6
-3 2 -9 -3 -6 -10 -8 -15 -5 -5 3 -12 0 -16 -6 -4 -8 -3 -9 4 -5 7 4 12 2 12
-5 0 -6 8 -18 17 -26 10 -8 12 -11 4 -7 -10 5 -12 3 -7 -5 5 -7 15 -10 23 -7
8 3 12 2 8 -3 -3 -5 1 -12 7 -14 8 -4 7 -6 -4 -6 -9 -1 -20 -6 -24 -13 -4 -7
-3 -8 4 -4 8 5 12 -2 12 -18 0 -14 5 -26 10 -26 6 0 10 -4 10 -10 0 -5 -8 -7
-17 -3 -15 5 -14 3 2 -10 11 -8 24 -13 30 -9 5 3 4 -2 -4 -11 -15 -19 -2 -24
16 -6 8 8 13 8 18 0 3 -6 -1 -14 -10 -17 -13 -5 -14 -9 -4 -15 10 -6 10 -11
-2 -25 -13 -15 -12 -16 11 -11 14 4 19 4 12 1 -7 -3 -17 -15 -23 -26 -8 -15
-8 -19 0 -14 6 4 11 0 11 -9 0 -10 6 -15 13 -12 7 3 21 -1 30 -8 15 -11 15
-13 2 -18 -8 -4 -12 -13 -9 -22 3 -8 11 -12 16 -9 6 4 5 -2 -1 -14 -14 -26
-14 -32 0 -32 5 0 7 5 3 12 -4 7 -3 8 5 4 9 -6 9 -11 0 -22 -7 -9 -8 -14 -3
-13 19 3 49 -3 37 -8 -15 -5 -18 -43 -4 -43 5 0 8 -8 7 -17 0 -10 6 -18 14
-18 8 0 15 -5 15 -12 0 -6 3 -15 8 -19 4 -4 7 -1 7 6 0 7 3 11 6 8 3 -4 1 -15
-5 -26 -13 -24 -5 -52 16 -52 8 0 11 -5 7 -12 -4 -6 -3 -9 2 -6 5 3 15 0 22
-8 12 -13 8 -18 -13 -15 -5 1 -1 -6 10 -14 15 -12 17 -18 7 -24 -9 -5 -4 -11
15 -19 25 -11 26 -11 9 2 -18 15 -18 15 1 13 19 -1 23 -10 23 -54 0 -25 15
-31 23 -10 3 6 4 2 4 -9 -1 -12 -6 -21 -12 -20 -5 2 -7 1 -2 -1 4 -3 4 -9 1
-15 -4 -6 3 -5 16 2 20 11 21 10 9 -12 -12 -22 -11 -22 6 -8 17 14 18 13 11
-5 -13 -34 -12 -39 9 -40 22 -1 67 -24 48 -25 -7 0 -11 -14 -11 -32 1 -30 2
-31 11 -10 6 12 13 22 18 22 9 0 6 -20 -5 -39 -7 -10 -3 -12 15 -6 23 7 23 7
4 -8 -19 -15 -19 -16 -2 -23 15 -5 16 -9 5 -15 -9 -6 -9 -9 -1 -9 6 0 15 5 18
10 8 13 35 -6 35 -23 0 -6 -7 -2 -16 9 -15 18 -15 18 -5 -2 6 -12 7 -25 3 -29
-4 -3 0 -5 8 -3 9 2 14 -3 12 -11 -3 -12 0 -12 13 -1 13 11 15 10 9 -6 -4 -10
-4 -16 1 -12 9 9 35 -9 35 -23 0 -5 -5 -9 -11 -9 -5 0 -7 5 -3 12 5 7 3 8 -6
3 -9 -6 -11 -4 -5 5 6 9 4 11 -4 6 -9 -6 -9 -12 3 -24 8 -10 15 -21 15 -27 1
-5 8 -10 16 -10 9 0 20 -7 25 -15 14 -21 12 -33 -3 -24 -8 5 -8 2 2 -9 15 -18
26 -23 16 -7 -3 6 1 10 10 10 9 0 13 -4 10 -10 -3 -5 -1 -10 5 -10 6 0 8 -4 5
-10 -3 -5 1 -10 9 -10 9 0 16 -5 16 -11 0 -5 -6 -7 -12 -3 -7 4 -2 -5 11 -19
20 -22 27 -25 40 -14 12 9 13 9 7 0 -4 -8 -2 -13 4 -13 6 0 8 -4 5 -10 -3 -5
-2 -10 4 -10 5 0 11 6 14 13 3 6 5 3 6 -8 2 -53 3 -54 25 -43 19 10 20 10 7
-6 -13 -16 -13 -17 3 -14 12 2 20 -4 22 -15 1 -10 10 -27 19 -37 9 -10 14 -23
11 -29 -4 -5 -1 -13 5 -17 8 -4 9 -3 5 4 -3 6 3 16 15 22 15 8 19 9 15 1 -7
-10 6 -16 27 -12 5 1 6 -3 2 -9 -4 -7 -13 -6 -28 2 -17 9 -15 4 8 -20 30 -32
47 -44 26 -18 -9 11 -9 16 0 22 8 4 9 3 5 -4 -4 -7 -2 -12 3 -12 6 0 11 -9 11
-20 0 -11 5 -20 11 -20 16 0 39 -26 31 -36 -4 -5 0 -3 10 4 12 10 18 10 24 1
4 -8 3 -9 -4 -5 -7 4 -12 0 -12 -10 0 -10 3 -15 6 -11 3 3 19 -8 36 -25 19
-19 35 -28 46 -23 9 3 13 3 9 -1 -4 -4 -1 -14 6 -23 11 -14 10 -14 -5 -2 -10
7 -18 11 -18 8 0 -2 17 -17 37 -33 20 -15 33 -23 30 -17 -4 7 -3 14 2 17 5 4
8 -5 6 -19 -1 -14 0 -23 3 -20 3 3 14 -3 25 -12 11 -10 17 -12 13 -5 -4 6 -2
12 3 12 6 0 11 -4 11 -10 0 -5 7 -10 15 -10 8 0 15 -5 15 -11 0 -5 -4 -7 -10
-4 -6 4 -7 -1 -3 -11 4 -11 8 -13 11 -6 2 7 8 12 13 12 6 0 7 -4 4 -10 -3 -5
0 -7 8 -5 7 3 22 -5 33 -17 19 -23 19 -23 -1 -8 -19 14 -19 14 -6 -2 7 -10 21
-18 31 -18 19 0 34 -25 24 -41 -3 -5 0 -9 5 -9 6 0 11 8 11 18 0 14 2 15 9 2
6 -8 7 -18 4 -24 -3 -5 -1 -6 5 -2 6 4 22 2 34 -4 18 -9 16 -5 -7 15 -26 23
-27 24 -4 11 14 -9 28 -14 30 -12 3 3 6 -7 7 -21 2 -31 10 -41 20 -28 4 6 13
11 21 13 12 3 12 0 2 -12 -11 -13 -10 -17 3 -22 9 -3 13 -11 9 -17 -3 -5 -1
-7 5 -4 15 10 43 -3 35 -16 -3 -6 -1 -7 6 -3 6 4 9 12 6 17 -3 5 1 6 9 3 9 -3
13 -11 9 -17 -4 -6 0 -8 10 -4 23 9 31 -10 10 -23 -17 -11 -17 -11 -1 -6 10 3
18 0 18 -6 0 -6 3 -8 7 -5 3 4 12 2 19 -4 8 -7 14 -6 20 2 5 8 3 10 -7 4 -8
-5 -10 -4 -6 0 13 15 36 14 30 -1 -4 -10 0 -12 13 -7 18 6 18 6 1 -15 -19 -20
-7 -26 20 -9 6 4 15 2 19 -4 4 -8 3 -9 -4 -5 -8 5 -10 2 -6 -8 5 -14 8 -14 21
-1 8 8 20 15 26 14 9 0 8 -2 0 -6 -14 -5 -18 -24 -5 -22 26 4 34 -1 22 -16
-11 -13 -10 -14 3 -9 9 3 24 -1 32 -10 20 -20 30 -20 49 -1 19 20 32 19 16 -1
-11 -13 -10 -16 8 -21 12 -3 20 -9 17 -13 -3 -4 7 -10 20 -13 14 -2 28 0 31 4
3 5 13 5 23 -1 10 -5 21 -6 25 -3 3 3 6 1 6 -6 0 -7 -7 -11 -14 -8 -10 4 -13
1 -10 -7 5 -12 17 -16 57 -17 9 0 15 -4 13 -8 -3 -4 1 -8 9 -8 8 0 12 4 9 9
-4 5 2 8 12 6 20 -3 54 -35 54 -50 0 -4 5 -8 11 -8 5 0 8 3 5 8 -5 9 61 9 70
0 3 -4 -6 -5 -20 -4 -15 2 -29 -1 -33 -7 -3 -6 -2 -7 3 -4 6 3 16 2 24 -3 8
-5 19 -5 25 -1 20 16 45 20 42 8 -1 -7 4 -11 11 -9 8 1 11 -2 7 -8 -4 -6 -12
-7 -19 -3 -7 4 -4 1 6 -8 9 -9 14 -20 10 -24 -4 -5 -1 -5 6 -1 7 4 10 11 8 15
-3 4 13 7 35 6 38 0 52 -9 27 -18 -7 -2 5 -3 27 -2 22 0 45 4 51 7 5 4 11 -3
11 -15 1 -12 -1 -17 -5 -12 -9 14 -28 13 -42 -1 -9 -9 -9 -14 -1 -19 6 -3 11
-3 10 2 -4 22 3 24 27 8 15 -9 23 -12 20 -6 -4 6 -2 11 3 11 6 0 11 -4 11 -10
0 -5 5 -10 11 -10 5 0 7 5 3 12 -5 7 -3 8 5 3 7 -4 29 -8 49 -10 20 -1 37 -7
37 -13 0 -6 3 -14 7 -17 4 -4 5 5 2 21 -3 22 -2 25 5 14 6 -8 14 -15 18 -16
20 -2 42 -17 37 -25 -8 -13 10 -11 25 4 8 7 11 7 8 1 -4 -7 0 -17 8 -24 13
-11 14 -10 10 1 -4 10 2 15 15 16 11 1 20 -3 20 -8 0 -6 -5 -7 -12 -3 -7 5 -8
3 -3 -6 6 -10 11 -9 22 5 7 11 13 15 13 9 0 -5 13 -9 29 -9 16 0 28 2 26 5 -6
9 64 4 72 -5 5 -4 1 -4 -7 0 -13 8 -13 6 -1 -8 12 -15 31 -15 31 -1 0 3 -4 2
-10 -1 -6 -4 -7 1 -3 11 4 10 8 13 10 7 2 -6 16 -9 31 -7 21 3 23 2 12 -6 -10
-6 -11 -10 -2 -10 6 0 12 -5 12 -11 0 -5 -4 -7 -10 -4 -5 3 -10 2 -10 -4 0 -7
139 -10 409 -10 363 0 410 2 415 16 5 13 4 13 -8 4 -10 -9 -15 -8 -19 2 -4 10
2 13 19 11 14 -1 28 5 34 14 5 10 10 12 10 6 0 -5 -5 -15 -11 -21 -8 -8 -7
-13 3 -18 7 -5 10 -5 6 -1 -3 4 2 16 13 27 20 20 34 26 25 10 -3 -5 1 -12 10
-15 11 -4 15 -2 11 6 -3 8 4 13 19 13 16 0 22 -5 19 -13 -3 -7 0 -10 5 -7 6 3
10 14 11 23 0 12 3 11 9 -5 5 -13 12 -23 14 -23 3 0 3 7 -1 16 -5 14 -3 15 15
5 12 -7 22 -9 22 -5 0 3 8 0 18 -7 14 -11 15 -11 5 1 -18 20 -16 26 9 27 18 2
20 0 8 -7 -9 -6 -10 -10 -3 -10 6 0 15 5 18 10 3 6 14 10 23 10 15 -1 15 -2
-2 -15 -11 -8 -15 -15 -9 -15 15 0 34 25 26 34 -4 3 2 12 12 20 17 12 21 12
32 -3 11 -14 12 -14 13 4 1 12 4 15 7 7 4 -10 8 -10 21 0 12 10 14 10 8 0 -4
-6 -3 -12 3 -12 5 0 13 5 16 10 4 6 11 7 17 4 6 -4 5 -10 -3 -16 -11 -8 -11
-9 1 -5 8 2 14 10 12 16 -1 6 4 11 12 11 7 0 19 6 26 14 6 8 18 12 26 9 8 -3
22 1 31 8 9 8 14 9 10 2 -8 -13 18 -12 30 2 4 4 2 5 -6 0 -9 -5 -12 -4 -7 3 4
6 13 9 21 6 8 -4 12 -10 9 -15 -3 -5 2 -6 10 -3 9 3 13 11 10 18 -3 6 1 3 9
-7 14 -16 15 -16 21 5 4 17 8 20 15 10 7 -11 9 -11 14 2 3 8 1 16 -6 19 -6 2
-3 6 7 10 9 4 15 3 11 -2 -3 -5 -1 -12 5 -16 6 -3 10 4 10 17 0 17 3 19 9 9 5
-7 13 -11 19 -7 6 3 13 2 16 -3 4 -5 14 -8 24 -6 9 2 21 4 25 4 5 1 5 6 2 11
-3 6 -1 10 5 10 7 0 10 7 7 15 -4 8 -1 17 5 21 7 4 8 3 4 -4 -4 -7 -3 -12 3
-12 5 0 18 -3 28 -6 17 -6 17 -6 -1 8 -18 14 -18 15 0 15 11 0 25 -4 32 -10 8
-6 16 -6 25 2 8 6 16 10 18 8 2 -1 -2 4 -10 10 -19 16 -7 17 22 1 20 -10 21
-10 8 6 -12 15 -12 16 5 9 17 -6 18 -5 4 12 -14 17 -14 18 9 5 22 -11 23 -11
17 6 -6 15 -4 16 5 7 6 -6 18 -9 27 -6 11 5 13 3 7 -7 -5 -9 -4 -11 4 -6 9 6
9 11 0 22 -10 12 -9 13 5 8 14 -6 21 5 17 29 0 4 4 7 10 7 6 0 8 -7 5 -15 -3
-8 -9 -22 -12 -30 -3 -8 -1 -15 5 -15 6 0 10 3 10 8 -3 18 2 29 14 30 12 1 47
9 57 12 3 1 9 2 14 1 5 -1 2 9 -7 23 -12 18 -14 27 -5 32 6 4 8 3 4 -4 -13
-21 12 -21 38 -1 15 12 25 15 24 9 -2 -7 3 -15 11 -18 10 -3 12 0 8 11 -4 12
-2 14 10 10 13 -5 15 -2 10 18 -6 23 -6 24 10 4 15 -20 15 -20 11 0 -4 15 0
21 13 21 11 0 19 -7 20 -16 0 -10 2 -11 6 -2 2 6 10 9 16 5 7 -4 5 2 -3 12
-14 17 -14 18 9 6 15 -8 21 -9 17 -2 -4 6 -2 11 4 11 6 0 8 5 5 10 -4 6 -12 7
-18 4 -7 -4 -8 -3 -4 1 4 5 13 10 20 11 7 1 21 6 31 10 13 5 17 4 12 -4 -3 -6
-1 -14 5 -18 8 -4 9 -3 5 4 -4 7 -3 12 3 12 6 0 8 7 5 15 -5 11 -2 13 10 9 9
-3 13 -11 9 -17 -3 -6 -1 -7 5 -3 9 5 9 13 0 29 -10 20 -10 21 6 8 14 -12 16
-12 11 2 -8 18 11 32 21 16 5 -8 3 -9 -7 -4 -12 8 -12 6 0 -8 14 -18 22 -22
20 -9 -4 22 2 42 11 37 6 -3 10 -2 10 4 0 5 -6 12 -12 14 -7 3 1 4 17 4 17 -1
33 -6 37 -12 4 -5 6 5 3 23 -2 18 0 30 5 27 5 -3 11 -1 15 5 4 7 12 7 26 0 15
-9 19 -7 20 7 0 11 3 13 6 6 2 -7 9 -13 14 -13 6 0 8 4 5 9 -3 5 1 14 10 21 8
7 13 19 10 27 -3 8 -2 11 3 8 5 -3 12 -1 16 5 3 5 11 10 18 10 6 0 3 -6 -8
-13 -14 -11 -15 -16 -5 -22 8 -5 11 -4 7 2 -4 6 0 14 9 17 15 6 15 9 -2 28
l-19 21 30 -19 c27 -17 29 -17 16 -1 -12 15 -12 17 3 11 9 -3 16 -11 16 -17 0
-6 6 -2 14 8 8 11 13 27 11 37 -2 11 1 15 10 12 8 -3 11 -13 8 -22 -4 -14 -3
-15 5 -2 8 10 7 19 -1 30 -6 8 -7 12 -3 8 5 -4 15 -3 23 4 11 9 12 7 7 -8 -6
-18 -6 -18 9 1 8 10 13 24 10 30 -2 7 3 12 12 12 8 0 15 -5 15 -10 0 -6 3 -7
6 -4 4 4 1 15 -7 24 -7 10 -10 15 -5 11 5 -4 15 -1 22 7 17 17 18 29 2 19 -7
-5 -8 -3 -3 5 5 9 10 10 18 2 17 -17 31 -13 17 4 -11 13 -10 14 3 10 8 -4 18
-1 23 6 5 8 3 10 -7 4 -8 -5 -5 2 6 16 11 13 22 26 24 29 2 3 0 -6 -4 -20 -7
-25 -7 -25 13 -5 18 19 18 21 3 40 -15 18 -15 19 1 7 13 -11 21 -11 35 -2 17
11 16 11 -2 5 -16 -5 -17 -4 -8 6 10 10 19 10 40 1 23 -10 25 -10 13 0 -8 7
-16 19 -17 25 -3 16 34 36 52 29 10 -3 12 0 8 11 -5 12 -3 14 8 8 11 -7 12 -6
2 7 -7 8 -10 18 -6 21 12 12 23 7 24 -10 0 -12 2 -13 6 -5 3 7 0 19 -7 27 -9
11 -6 13 14 11 18 -2 23 1 18 12 -4 11 -2 13 9 7 11 -7 12 -6 2 7 -16 18 -5
32 13 17 10 -8 12 -6 9 11 -4 19 -2 20 12 8 12 -9 15 -9 9 -1 -4 7 -2 21 4 30
10 16 11 16 6 1 -3 -12 -1 -15 9 -11 12 4 12 9 3 26 l-11 22 23 -20 23 -20
-12 22 c-9 18 -9 22 2 17 8 -3 20 3 28 12 9 12 10 15 2 10 -7 -4 -13 -2 -13 3
0 10 14 15 33 12 11 -2 4 32 -8 41 -6 5 -5 8 3 8 7 0 15 -7 18 -15 5 -12 10
-10 24 8 12 14 15 26 9 33 -10 12 -2 24 15 24 6 0 4 -5 -4 -11 -13 -9 -13 -10
0 -6 8 2 16 9 16 15 1 7 2 17 3 23 0 5 6 7 13 3 7 -5 9 -1 6 13 -8 32 9 55 32
43 16 -9 18 -8 13 6 -4 12 -3 15 5 10 8 -5 10 -1 5 10 -5 13 -3 15 7 9 9 -6
11 -4 5 5 -6 10 -4 12 9 7 16 -6 16 -5 1 15 -18 27 -20 49 -2 23 11 -14 16
-15 22 -5 6 9 4 11 -6 6 -8 -4 -6 -1 3 7 14 11 15 16 5 27 -9 10 -9 11 1 6 6
-4 12 -2 12 4 0 6 4 8 10 5 6 -3 7 1 4 9 -4 11 0 16 11 16 10 0 13 -5 9 -12
-4 -6 -3 -8 4 -4 6 3 9 15 7 26 -2 11 0 20 4 20 4 0 8 7 8 15 0 8 -4 15 -9 15
-4 0 0 8 10 18 12 14 22 16 35 10 17 -9 17 -8 3 15 -18 26 -11 43 11 25 11 -9
12 -7 7 7 -5 12 -4 16 3 12 6 -4 17 1 24 10 12 15 12 16 -6 10 -18 -7 -19 -6
-3 6 10 8 15 17 11 20 -3 4 -1 7 5 7 7 0 12 5 12 11 0 5 -4 8 -9 4 -5 -3 -12
-1 -16 5 -6 9 6 14 21 8 3 -2 12 11 18 27 9 22 10 32 2 38 -7 5 -2 7 11 4 15
-3 20 -1 16 9 -3 8 -9 11 -14 8 -5 -3 -6 2 -3 10 5 14 8 14 21 1 20 -20 29
-19 12 1 -11 14 -10 18 6 30 17 13 14 19 -7 15 -13 -2 -9 6 9 20 14 12 16 12
8 0 -5 -10 -4 -12 4 -7 9 6 9 11 -1 24 -10 12 -10 14 0 8 7 -4 12 -2 12 4 0 6
4 9 8 6 4 -2 14 0 22 6 12 8 11 9 -3 4 -12 -4 -17 -2 -15 6 2 6 12 12 22 14
10 1 21 6 24 10 4 4 -1 5 -10 1 -27 -9 -31 22 -6 48 18 19 26 21 38 12 12 -10
13 -9 4 3 -18 24 -25 52 -12 44 8 -5 9 -2 5 10 -4 9 -3 14 2 11 5 -3 12 -1 16
5 3 5 -2 10 -12 11 -16 0 -16 1 1 8 18 7 18 8 2 14 -15 6 -16 10 -6 22 7 8 17
12 23 8 6 -4 8 0 5 9 -4 8 0 15 8 15 7 0 10 -5 7 -11 -3 -6 0 -5 8 3 11 10 11
15 2 18 -10 3 -9 8 3 20 13 14 13 18 0 38 -16 24 -12 37 9 29 7 -3 16 0 21 7
4 7 3 10 -4 5 -6 -3 -13 -2 -16 3 -7 10 22 24 34 16 4 -3 6 5 2 17 -3 14 -1
19 6 14 8 -5 10 -2 6 8 -3 9 -11 13 -18 9 -6 -3 -8 -3 -4 2 4 4 2 15 -5 24
-10 14 -10 14 4 4 13 -11 18 -9 27 12 10 21 9 27 -3 31 -21 8 -19 26 3 22 12
-2 16 3 14 16 -2 11 1 15 7 11 6 -3 11 -3 12 2 0 4 2 18 3 31 2 12 -2 22 -8
22 -5 0 -1 7 10 15 14 11 15 14 3 9 -10 -3 -20 0 -25 7 -4 8 -3 10 4 5 7 -4
12 -1 12 9 0 9 4 14 9 11 5 -4 6 9 1 29 -8 35 8 47 21 16 4 -11 7 -9 11 7 4
12 2 20 -3 16 -5 -3 -9 0 -9 6 0 6 -5 8 -12 4 -9 -5 -8 -2 1 10 11 13 16 14
22 4 7 -10 9 -9 9 5 0 9 -4 17 -8 17 -17 0 -5 44 13 50 17 6 17 7 2 13 -9 3
-17 11 -17 17 0 6 5 8 12 4 6 -4 8 -3 4 4 -3 6 -2 13 4 17 6 4 4 15 -6 31 -9
13 -12 24 -6 24 5 0 12 10 15 23 5 20 5 20 -7 5 -11 -15 -13 -13 -12 16 1 19
5 32 9 29 5 -3 7 3 5 13 -2 13 3 19 17 19 20 0 20 7 21 421 1 238 -2 427 -7
435 -7 10 -8 5 -5 -13 3 -15 1 -30 -3 -32 -8 -5 -9 -2 -13 56 -2 20 -7 40 -12
45 -6 5 -6 2 -1 -7 5 -8 4 -12 0 -7 -12 11 -14 47 -2 47 5 0 4 7 -3 15 -10 12
-9 15 6 16 18 0 18 1 -1 9 -14 6 -15 9 -5 10 12 0 11 4 -4 15 -17 13 -18 15
-3 15 9 0 17 5 17 11 0 5 -6 7 -12 4 -7 -4 -4 1 7 10 20 17 20 17 -5 10 -23
-7 -24 -7 -10 10 8 11 10 16 4 12 -7 -4 -18 1 -25 11 -12 15 -12 16 1 5 10 -8
21 -9 30 -3 13 8 12 10 -2 10 -10 0 -18 7 -18 16 0 8 5 12 10 9 6 -3 10 -1 10
5 0 7 -8 9 -22 5 -17 -6 -20 -4 -14 10 4 12 2 16 -8 12 -15 -6 -16 17 -1 30 4
5 5 1 0 -7 -5 -8 -4 -12 0 -7 5 4 9 16 10 27 1 15 -1 17 -12 9 -16 -14 -17 3
-1 19 9 9 9 12 -2 12 -9 0 -8 5 5 14 19 13 18 15 -15 29 -28 13 -30 15 -11 14
13 -1 25 4 27 11 1 7 0 8 -3 2 -3 -6 -11 -6 -25 1 -11 6 -17 13 -14 16 3 3 1
14 -4 24 -7 12 -7 20 0 24 13 8 13 25 -1 25 -5 0 -7 -4 -4 -10 10 -16 -1 -11
-16 7 -10 11 -10 14 -1 9 6 -4 12 -4 13 1 5 62 3 90 -7 86 -18 -7 -56 39 -44
51 12 12 14 29 2 22 -4 -2 -9 5 -9 17 -2 17 0 18 7 7 7 -11 9 -10 7 8 0 12 -5
22 -10 22 -4 0 -5 5 -1 12 4 7 3 8 -5 4 -6 -4 -9 -12 -6 -17 3 -5 -1 -6 -10
-3 -12 5 -13 9 -4 20 10 12 9 13 -5 8 -9 -3 -16 -11 -16 -17 0 -6 -3 -7 -6 -4
-4 4 -1 13 6 22 7 8 9 15 5 15 -4 0 -2 7 5 16 8 8 9 14 4 13 -22 -4 -26 2 -9
14 14 11 15 16 5 22 -9 6 -11 4 -5 -5 5 -9 4 -11 -4 -6 -6 4 -9 11 -6 16 3 5
-8 23 -25 40 -16 17 -30 34 -30 38 0 4 7 -2 15 -12 8 -11 17 -17 20 -15 3 3
-4 15 -15 27 -19 20 -19 22 -3 22 14 0 15 2 4 9 -8 5 -19 8 -25 7 -6 -2 -8 -1
-4 1 4 3 1 12 -8 20 -8 9 -13 22 -10 29 3 8 1 14 -5 14 -6 0 -7 5 -4 10 3 6
-1 13 -9 16 -9 3 -16 11 -16 16 0 6 6 6 14 -1 11 -9 16 -9 22 0 5 8 3 9 -6 4
-10 -6 -12 -4 -7 8 5 13 2 15 -18 7 -24 -9 -28 1 -11 29 7 11 5 13 -8 8 -9 -4
-15 -3 -11 2 3 5 2 11 -2 14 -5 2 -1 2 7 0 8 -2 11 -1 7 3 -4 4 -3 12 3 18 6
8 1 12 -18 14 -15 1 -29 7 -30 12 -2 6 -9 7 -15 3 -9 -5 -9 -3 -1 8 15 20 16
63 1 51 -7 -6 -20 -6 -32 -1 -18 9 -18 9 3 5 15 -3 22 1 22 11 0 9 -6 13 -15
10 -8 -4 -17 -2 -20 4 -4 5 -12 6 -18 2 -7 -4 -6 0 2 10 7 9 10 17 5 17 -5 0
0 7 10 15 19 14 18 15 -12 11 -18 -2 -30 -1 -27 2 2 3 -1 12 -8 20 -9 13 -9
14 1 8 6 -4 12 -2 12 3 0 6 -5 11 -11 11 -6 0 -9 9 -6 19 5 21 -23 53 -56 64
-10 4 -15 11 -12 17 3 5 -6 15 -20 22 l-26 12 23 13 c18 9 19 12 6 13 -11 0
-15 5 -12 14 3 7 -2 16 -11 20 -9 3 -13 2 -10 -4 3 -6 1 -10 -4 -10 -6 0 -11
10 -11 23 0 16 -3 18 -9 9 -6 -11 -9 -9 -13 6 -4 16 -2 19 11 15 13 -4 13 -2
-2 7 -9 6 -14 16 -11 22 4 7 2 8 -4 4 -7 -4 -12 -13 -12 -21 0 -8 -3 -16 -7
-18 -5 -3 -8 5 -8 18 0 13 3 21 8 18 4 -2 7 1 7 6 0 6 -6 11 -14 11 -8 0 -18
5 -22 12 -4 7 -3 8 4 4 7 -4 12 -1 12 9 0 11 -5 15 -16 11 -8 -3 -12 -2 -9 4
3 6 1 10 -4 10 -6 0 -11 7 -11 16 0 9 -5 12 -12 8 -8 -5 -9 -2 -5 9 4 11 1 17
-8 17 -8 0 -15 5 -15 11 0 5 -4 8 -9 5 -10 -7 -9 13 1 30 4 6 1 11 -7 11 -8 0
-12 -4 -9 -9 8 -13 -6 -9 -22 6 -11 11 -11 16 -1 19 6 3 2 6 -10 6 -13 1 -23
6 -23 12 0 5 5 7 12 3 7 -4 8 -3 4 5 -6 9 -11 9 -22 0 -11 -9 -14 -8 -14 5 0
9 -6 16 -12 16 -9 0 -8 4 2 10 13 8 12 10 -2 10 -10 0 -18 4 -18 9 0 5 -10 12
-22 16 -20 6 -20 8 -5 12 9 2 15 8 12 13 -3 5 -12 7 -20 3 -11 -4 -13 -1 -9
12 6 15 4 16 -13 7 -15 -9 -20 -8 -20 3 0 8 5 11 11 8 8 -4 8 -2 1 5 -6 7 -22
13 -36 14 -16 1 -26 8 -26 18 0 31 -3 40 -14 40 -5 0 -7 -5 -3 -11 4 -8 0 -8
-15 0 -11 7 -21 17 -21 24 0 7 4 6 10 -3 8 -12 11 -13 22 -2 11 11 10 13 -2
10 -8 -2 -14 2 -13 9 2 7 -4 10 -12 7 -8 -4 -15 -1 -15 5 0 6 -5 11 -11 11 -5
0 -7 -4 -4 -10 4 -6 -1 -7 -11 -3 -11 4 -13 8 -6 11 7 2 12 8 12 14 0 6 -6 8
-14 5 -8 -3 -13 1 -12 11 1 11 -8 18 -22 20 -12 2 -20 8 -17 13 4 5 1 9 -4 9
-6 0 -11 7 -11 15 0 9 -6 12 -17 8 -12 -5 -14 -3 -8 7 6 10 4 12 -8 7 -22 -8
-21 -3 0 19 16 16 16 16 -5 10 -17 -6 -22 -3 -23 11 0 16 -1 16 -9 -2 -8 -18
-9 -19 -9 -1 -1 12 -6 16 -16 13 -18 -7 -30 9 -14 19 8 5 9 3 4 -6 -6 -9 -4
-11 4 -6 9 6 8 13 -5 27 -18 20 -29 25 -19 9 3 -5 -1 -10 -10 -10 -10 0 -13 5
-9 13 4 6 -2 4 -14 -7 -21 -18 -21 -18 -16 8 3 21 1 24 -13 19 -15 -6 -16 -4
-6 8 10 12 8 15 -13 17 -17 1 -23 -2 -18 -10 4 -7 3 -8 -5 -4 -9 6 -9 11 0 22
8 10 8 14 0 14 -6 0 -11 7 -11 15 0 9 -6 12 -17 8 -12 -5 -14 -3 -8 8 7 12 6
12 -7 1 -14 -11 -19 -10 -34 13 -11 18 -23 25 -36 22 -10 -3 -18 -1 -18 3 0 5
-6 10 -12 13 -7 2 -4 3 7 1 19 -3 20 -3 1 11 -10 8 -23 12 -27 9 -5 -3 -9 0
-9 6 0 6 -8 10 -17 9 -31 -3 -36 1 -23 16 16 20 6 19 -14 0 -14 -14 -16 -13
-22 9 -5 20 -10 24 -23 17 -13 -7 -17 -5 -18 10 -1 10 -8 26 -17 34 -15 16
-31 21 -22 7 2 -4 -6 -8 -20 -8 -16 0 -23 5 -20 13 3 7 0 15 -6 19 -7 4 -8 3
-4 -4 4 -7 3 -12 -2 -12 -5 0 -14 12 -21 26 -6 15 -15 24 -18 20 -3 -3 -13 0
-21 7 -13 10 -15 9 -9 -5 3 -10 2 -20 -4 -23 -5 -4 -8 -1 -7 7 2 7 -3 12 -10
10 -10 -2 -11 4 -7 19 6 18 4 20 -13 15 -12 -4 -26 -1 -35 9 -9 8 -22 13 -30
10 -7 -3 -20 2 -28 12 -13 16 -12 17 4 4 9 -7 17 -9 17 -5 0 5 -9 15 -21 22
-12 8 -18 9 -14 3 3 -6 2 -11 -4 -11 -5 0 -12 6 -14 13 -4 9 -6 9 -6 -2 -1 -8
-9 -5 -22 10 l-20 24 11 -23 c11 -23 11 -23 -14 -7 -14 10 -26 23 -26 30 0 7
-8 16 -17 20 -23 8 -28 7 -28 -4 0 -5 -4 -13 -9 -18 -5 -4 -6 -3 -3 3 4 7 -1
18 -10 25 -12 10 -14 10 -9 2 4 -7 2 -13 -3 -13 -6 0 -11 6 -11 13 0 8 -3 9
-8 1 -9 -13 -42 -14 -42 -1 0 5 8 6 17 3 10 -4 8 2 -8 17 -31 31 -60 42 -52
20 5 -13 1 -12 -23 3 -15 11 -25 14 -21 7 4 -6 3 -14 -3 -18 -5 -3 -10 1 -10
10 0 9 -5 13 -10 10 -6 -4 -7 -12 -3 -18 4 -7 -1 -6 -11 2 -12 10 -14 17 -6
25 5 5 10 15 10 20 0 6 -5 4 -10 -4 -8 -13 -11 -13 -22 -1 -10 10 -10 12 0 7
6 -4 12 -3 12 2 0 6 -7 13 -16 16 -8 3 -12 2 -9 -4 3 -6 1 -10 -5 -10 -6 0 -8
-5 -4 -12 5 -9 2 -9 -9 1 -19 15 -23 26 -5 15 7 -4 8 -3 4 4 -4 6 -13 9 -21 6
-8 -4 -13 -9 -10 -13 6 -10 -33 -7 -42 4 -5 4 -3 5 4 1 6 -3 14 -2 17 3 7 11
-13 9 -33 -3 -11 -7 -13 -5 -9 6 4 8 2 21 -3 29 -5 8 -9 9 -9 3 0 -7 -7 -15
-16 -18 -14 -5 -15 -4 -4 9 7 9 10 18 6 22 -3 3 -6 1 -6 -5 0 -7 -10 -10 -22
-8 -13 2 -22 9 -20 16 1 6 -2 9 -8 5 -6 -3 -8 -11 -5 -16 4 -5 1 -9 -4 -9 -6
0 -11 5 -11 12 0 9 -3 9 -12 0 -16 -16 -33 -15 -20 1 8 9 -1 12 -40 10 -42 -1
-48 0 -37 13 6 8 9 17 5 21 -3 3 -6 1 -6 -5 0 -17 -21 -10 -43 13 -18 20 -18
20 -7 -3 7 -13 9 -26 6 -30 -3 -3 -6 -1 -6 5 0 6 -10 18 -23 26 -19 12 -24 13
-24 2 0 -8 4 -12 8 -9 4 2 10 0 13 -5 4 -5 -1 -8 -10 -7 -9 1 -20 10 -25 19
-11 19 -39 12 -39 -10 0 -12 -2 -12 -16 1 -17 17 -29 21 -20 8 3 -5 -9 -8 -25
-7 -17 1 -35 8 -40 16 -7 11 -9 11 -9 1 0 -7 -4 -11 -9 -7 -5 3 -13 0 -16 -6
-5 -7 -14 -3 -26 10 -26 28 -24 35 5 16 18 -12 26 -13 32 -4 4 8 3 9 -4 5 -7
-4 -12 -2 -12 4 0 6 -4 8 -10 5 -5 -3 -10 -2 -10 4 0 6 -145 10 -422 9 -233 0
-417 -3 -410 -5z m-202 -55 c3 -4 -1 -5 -10 -4 -8 1 -18 5 -22 8 -3 4 1 5 10
4 8 -1 18 -5 22 -8z m-64 -19 c2 -2 1 -3 -1 -1 -2 1 -12 -5 -22 -14 -16 -14
-17 -14 -14 3 2 10 4 19 4 20 2 3 31 -3 33 -8z m1611 -54 c-3 -9 -8 -14 -10
-11 -3 3 -2 9 2 15 9 16 15 13 8 -4z m-1977 -37 c4 -7 3 -8 -4 -4 -11 7 -17
-6 -13 -27 1 -5 -3 -6 -9 -2 -7 4 -7 12 0 26 12 22 16 23 26 7z m-166 -59 c-7
-11 -14 -18 -17 -15 -3 3 0 12 7 21 18 21 23 19 10 -6z m2550 -24 c7 -9 8 -15
2 -15 -5 0 -12 7 -16 15 -3 8 -4 15 -2 15 2 0 9 -7 16 -15z m300 -145 c0 -5
-5 -10 -11 -10 -5 0 -7 5 -4 10 3 6 8 10 11 10 2 0 4 -4 4 -10z m-3876 -428
c3 -5 -1 -9 -9 -9 -8 0 -12 4 -9 9 3 4 7 8 9 8 2 0 6 -4 9 -8z m-150 -154 c-4
-6 -10 -5 -15 3 -8 13 -13 5 -10 -14 1 -5 -3 -6 -9 -2 -8 5 -8 11 0 20 13 15
43 9 34 -7z m-94 -74 c0 -8 -5 -12 -10 -9 -6 4 -8 11 -5 16 9 14 15 11 15 -7z
m-395 -484 c-3 -5 -12 -10 -18 -10 -7 0 -6 4 3 10 19 12 23 12 15 0z m5831
-62 c12 -14 13 -18 3 -10 -9 6 -20 8 -24 4 -5 -4 -5 -2 -2 5 4 6 1 14 -5 16
-8 3 -8 6 -2 6 6 1 19 -9 30 -21z m-6139 -483 c0 -8 -4 -12 -9 -9 -5 3 -6 10
-3 15 9 13 12 11 12 -6z m6531 -360 c-3 -3 -9 2 -12 12 -6 14 -5 15 5 6 7 -7
10 -15 7 -18z m-6664 7 c3 -5 -1 -9 -9 -9 -8 0 -12 4 -9 9 3 4 7 8 9 8 2 0 6
-4 9 -8z m-94 -352 c-13 -9 -13 -10 0 -10 12 -1 11 -3 -3 -11 -9 -6 -14 -15
-11 -21 4 -7 2 -8 -5 -4 -6 4 -8 13 -4 19 4 7 8 15 9 20 1 4 2 9 3 12 0 3 7 5
14 5 8 0 7 -4 -3 -10z m-20 -230 c0 -5 -5 -10 -11 -10 -5 0 -7 5 -4 10 3 6 8
10 11 10 2 0 4 -4 4 -10z m6900 -20 c0 -5 -4 -10 -10 -10 -5 0 -10 5 -10 10 0
6 5 10 10 10 6 0 10 -4 10 -10z m-6904 -48 c1 -7 0 -8 -3 -2 -2 5 -9 8 -14 4
-5 -3 -9 0 -9 6 0 15 23 7 26 -8z m-29 -34 c-3 -8 -6 -5 -6 6 -1 11 2 17 5 13
3 -3 4 -12 1 -19z m10 -759 c-14 -8 -16 -14 -6 -25 6 -7 16 -11 23 -7 6 3 6 0
-1 -7 -11 -12 -15 -11 -27 6 -15 20 -5 44 18 44 6 0 3 -5 -7 -11z m6943 -4 c0
-2 -10 -9 -22 -15 -22 -11 -22 -10 -4 4 21 17 26 19 26 11z m-23 -181 c-3 -3
-12 -4 -19 -1 -8 3 -5 6 6 6 11 1 17 -2 13 -5z m-63 -312 c2 -4 -4 -8 -14 -8
-10 0 -16 4 -14 8 3 4 9 8 14 8 5 0 11 -4 14 -8z m-6740 -84 c-9 -14 -23 2
-17 18 4 12 8 13 14 3 4 -7 5 -17 3 -21z m6710 -13 c-4 -8 -8 -15 -10 -15 -2
0 -4 7 -4 15 0 8 4 15 10 15 5 0 7 -7 4 -15z m-6594 -345 c0 -5 -2 -10 -4 -10
-3 0 -8 5 -11 10 -3 6 -1 10 4 10 6 0 11 -4 11 -10z m6445 -38 c-17 -15 -18
-15 -6 0 7 9 9 23 5 30 -6 10 -4 11 7 0 11 -10 10 -15 -6 -30z m-6355 -136 c0
-3 -4 -8 -10 -11 -5 -3 -10 -1 -10 4 0 6 5 11 10 11 6 0 10 -2 10 -4z m46
-126 c0 -12 -4 -16 -9 -11 -5 5 -6 14 -3 20 10 15 12 14 12 -9z m42 -45 c-3
-3 -9 2 -12 12 -6 14 -5 15 5 6 7 -7 10 -15 7 -18z m5827 -443 c-3 -3 -11 0
-18 7 -9 10 -8 11 6 5 10 -3 15 -9 12 -12z m-5505 -56 c0 -2 -7 -7 -16 -10 -8
-3 -12 -2 -9 4 6 10 25 14 25 6z m5480 -11 c-7 -9 -15 -13 -19 -10 -3 3 1 10
9 15 21 14 24 12 10 -5z m-5369 -118 c-6 -8 -7 -18 -3 -23 4 -4 -1 -2 -11 6
-18 14 -18 14 0 21 26 11 27 10 14 -4z m134 -147 c-3 -5 -1 -10 4 -10 6 0 11
-5 11 -11 0 -8 -5 -8 -15 1 -13 11 -12 30 1 30 3 0 2 -4 -1 -10z m4975 0 c0
-5 -5 -10 -11 -10 -5 0 -7 5 -4 10 3 6 8 10 11 10 2 0 4 -4 4 -10z m-4767
-183 c3 -8 -1 -14 -8 -14 -7 0 -11 6 -8 14 3 7 6 13 8 13 2 0 5 -6 8 -13z m87
-97 c0 -5 -2 -10 -4 -10 -3 0 -8 5 -11 10 -3 6 -1 10 4 10 6 0 11 -4 11 -10z
m4345 -20 c-3 -5 -1 -10 5 -10 6 0 8 -5 4 -11 -4 -8 -9 -7 -15 2 -7 12 -3 29
7 29 3 0 2 -4 -1 -10z m-4285 -16 c0 -8 -19 -13 -24 -6 -3 5 1 9 9 9 8 0 15
-2 15 -3z m33 -9 c-3 -9 -8 -14 -10 -11 -3 3 -2 9 2 15 9 16 15 13 8 -4z
m4151 -66 c-3 -5 -10 -7 -15 -3 -5 3 -7 10 -3 15 3 5 10 7 15 3 5 -3 7 -10 3
-15z m-3868 -155 c18 -14 18 -14 -6 -3 -31 14 -36 19 -24 19 6 0 19 -7 30 -16z
m3344 -158 c0 -2 -7 -7 -16 -10 -8 -3 -12 -2 -9 4 6 10 25 14 25 6z m-3020
-18 c0 -4 -4 -8 -9 -8 -6 0 -12 4 -15 8 -3 5 1 9 9 9 8 0 15 -4 15 -9z m78
-33 c-3 -3 -9 2 -12 12 -6 14 -5 15 5 6 7 -7 10 -15 7 -18z"/>
<path d="M3990 6956 c7 -7 13 -7 20 0 6 6 3 10 -10 10 -13 0 -16 -4 -10 -10z"/>
<path d="M2676 6912 c-3 -5 1 -9 9 -9 8 0 12 4 9 9 -3 4 -7 8 -9 8 -2 0 -6 -4
-9 -8z"/>
<path d="M2575 6900 c-3 -5 -1 -10 4 -10 6 0 11 5 11 10 0 6 -2 10 -4 10 -3 0
-8 -4 -11 -10z"/>
<path d="M2005 6670 c-4 -6 -11 -7 -17 -4 -7 4 -8 2 -4 -5 6 -8 12 -9 20 -2 7
6 17 7 21 3 5 -4 5 -1 1 6 -9 15 -13 15 -21 2z"/>
<path d="M5030 6656 c7 -7 13 -7 20 0 6 6 3 10 -10 10 -13 0 -16 -4 -10 -10z"/>
<path d="M5316 6515 c-11 -8 -17 -17 -14 -20 2 -3 13 4 23 15 21 23 18 25 -9
5z"/>
<path d="M1556 6423 c-6 -14 -5 -15 5 -6 7 7 10 15 7 18 -3 3 -9 -2 -12 -12z"/>
<path d="M5470 6406 c0 -8 4 -17 9 -20 5 -4 7 3 4 14 -6 23 -13 26 -13 6z"/>
<path d="M1333 6274 c10 -10 -52 -56 -65 -48 -10 5 -10 4 -1 -6 9 -10 19 -7
47 15 31 23 40 45 19 45 -4 0 -4 -3 0 -6z"/>
<path d="M5945 6000 c-7 -12 -7 -12 22 -15 12 -1 20 1 17 6 -2 4 -12 5 -21 2
-11 -4 -14 -3 -9 5 4 7 5 12 2 12 -3 0 -8 -4 -11 -10z"/>
<path d="M846 5801 c-4 -5 -2 -12 3 -15 5 -4 12 -2 15 3 4 5 2 12 -3 15 -5 4
-12 2 -15 -3z"/>
<path d="M6388 5474 c12 -8 20 -19 18 -23 -3 -4 1 -8 9 -8 8 0 15 2 15 3 0 8
-45 44 -54 44 -6 0 0 -7 12 -16z"/>
<path d="M6516 5258 c3 -5 10 -6 15 -3 13 9 11 12 -6 12 -8 0 -12 -4 -9 -9z"/>
<path d="M6675 4970 c3 -5 8 -10 11 -10 2 0 4 5 4 10 0 6 -5 10 -11 10 -5 0
-7 -4 -4 -10z"/>
<path d="M267 4855 c3 -8 9 -12 14 -9 12 7 11 11 -5 17 -10 4 -13 1 -9 -8z"/>
<path d="M190 4699 c0 -5 5 -7 10 -4 6 3 10 8 10 11 0 2 -4 4 -10 4 -5 0 -10
-5 -10 -11z"/>
<path d="M6800 4626 c0 -2 7 -7 16 -10 8 -3 12 -2 9 4 -6 10 -25 14 -25 6z"/>
<path d="M6866 4447 c3 -10 9 -15 12 -12 3 3 0 11 -7 18 -10 9 -11 8 -5 -6z"/>
<path d="M6960 3076 c0 -2 7 -9 15 -16 9 -7 15 -8 15 -2 0 5 -7 12 -15 16 -8
3 -15 4 -15 2z"/>
<path d="M6955 3040 c-3 -5 -1 -10 4 -10 6 0 11 5 11 10 0 6 -2 10 -4 10 -3 0
-8 -4 -11 -10z"/>
<path d="M6946 2845 c4 -8 11 -15 16 -15 6 0 5 6 -2 15 -7 8 -14 15 -16 15 -2
0 -1 -7 2 -15z"/>
<path d="M100 2613 c5 -2 8 -8 6 -12 -3 -4 0 -13 5 -21 7 -11 8 -9 6 9 -2 14
-9 26 -16 27 -6 1 -7 0 -1 -3z"/>
<path d="M260 2140 c-12 -7 -10 -9 7 -7 12 0 19 5 17 9 -6 10 -6 10 -24 -2z"/>
<path d="M6700 2100 c0 -5 5 -10 11 -10 5 0 7 5 4 10 -3 6 -8 10 -11 10 -2 0
-4 -4 -4 -10z"/>
<path d="M6606 1874 c-9 -24 -2 -26 12 -4 7 11 8 20 3 20 -5 0 -12 -7 -15 -16z"/>
<path d="M470 1719 c0 -5 5 -7 10 -4 6 3 10 8 10 11 0 2 -4 4 -10 4 -5 0 -10
-5 -10 -11z"/>
<path d="M6485 1680 c-3 -5 -1 -10 5 -10 6 0 8 -6 4 -12 -4 -7 -3 -9 1 -5 12
10 15 37 5 37 -5 0 -12 -4 -15 -10z"/>
<path d="M573 1575 c0 -8 4 -12 9 -9 5 3 6 10 3 15 -9 13 -12 11 -12 -6z"/>
<path d="M5960 1020 c-12 -7 -10 -9 8 -7 12 0 22 5 22 9 0 11 -12 10 -30 -2z"/>
<path d="M5471 616 c-9 -11 -9 -16 1 -22 7 -4 10 -4 6 1 -4 4 -3 14 3 22 6 7
9 13 6 13 -2 0 -10 -6 -16 -14z"/>
<path d="M4386 111 c-13 -14 -14 -21 -5 -27 8 -4 10 -3 5 4 -6 11 5 16 26 13
4 0 5 6 2 14 -8 19 -7 19 -28 -4z"/>
<path d="M4230 80 c0 -5 5 -10 11 -10 5 0 7 5 4 10 -3 6 -8 10 -11 10 -2 0 -4
-4 -4 -10z"/>
<path d="M2765 69 c-4 -5 -4 -13 -1 -16 3 -4 6 0 6 8 0 11 2 11 10 -1 6 -9 10
-10 10 -3 0 17 -17 25 -25 12z"/>
<path d="M3070 24 c0 -8 5 -12 10 -9 6 4 8 11 5 16 -9 14 -15 11 -15 -7z"/>
</g>
</svg>
